<svg xmlns="http://www.w3.org/2000/svg" width="1006.00" height="352.00" viewBox="0 0 1006.00 352.00">
<rect width="100%" height="100%" fill="#fff"/>
<line x1="186.00" y1="16.00" x2="186.00" y2="324.00" stroke="#ccc"/>
<text x="186.00" y="336.00" font-family="monospace" font-size="10" text-anchor="middle" fill="#666">0</text>
<line x1="279.25" y1="16.00" x2="279.25" y2="324.00" stroke="#ccc"/>
<text x="279.25" y="336.00" font-family="monospace" font-size="10" text-anchor="middle" fill="#666">10000000</text>
<line x1="372.49" y1="16.00" x2="372.49" y2="324.00" stroke="#ccc"/>
<text x="372.49" y="336.00" font-family="monospace" font-size="10" text-anchor="middle" fill="#666">20000000</text>
<line x1="465.74" y1="16.00" x2="465.74" y2="324.00" stroke="#ccc"/>
<text x="465.74" y="336.00" font-family="monospace" font-size="10" text-anchor="middle" fill="#666">30000000</text>
<line x1="558.98" y1="16.00" x2="558.98" y2="324.00" stroke="#ccc"/>
<text x="558.98" y="336.00" font-family="monospace" font-size="10" text-anchor="middle" fill="#666">40000000</text>
<line x1="652.23" y1="16.00" x2="652.23" y2="324.00" stroke="#ccc"/>
<text x="652.23" y="336.00" font-family="monospace" font-size="10" text-anchor="middle" fill="#666">50000000</text>
<line x1="745.47" y1="16.00" x2="745.47" y2="324.00" stroke="#ccc"/>
<text x="745.47" y="336.00" font-family="monospace" font-size="10" text-anchor="middle" fill="#666">60000000</text>
<line x1="838.72" y1="16.00" x2="838.72" y2="324.00" stroke="#ccc"/>
<text x="838.72" y="336.00" font-family="monospace" font-size="10" text-anchor="middle" fill="#666">70000000</text>
<line x1="931.96" y1="16.00" x2="931.96" y2="324.00" stroke="#ccc"/>
<text x="931.96" y="336.00" font-family="monospace" font-size="10" text-anchor="middle" fill="#666">80000000</text>
<text x="174.00" y="44.00" font-family="monospace" font-size="12" text-anchor="end" fill="#000">tb_top.rx_i</text>
<line x1="186.00" y1="52.00" x2="347.13" y2="52.00" stroke="#000" stroke-width="1.5"/>
<line x1="347.13" y1="52.00" x2="347.13" y2="28.00" stroke="#000" stroke-width="1.5"/>
<line x1="347.13" y1="28.00" x2="427.69" y2="28.00" stroke="#000" stroke-width="1.5"/>
<line x1="427.69" y1="28.00" x2="427.69" y2="52.00" stroke="#000" stroke-width="1.5"/>
<line x1="427.69" y1="52.00" x2="508.26" y2="52.00" stroke="#000" stroke-width="1.5"/>
<line x1="508.26" y1="52.00" x2="508.26" y2="28.00" stroke="#000" stroke-width="1.5"/>
<line x1="508.26" y1="28.00" x2="669.38" y2="28.00" stroke="#000" stroke-width="1.5"/>
<line x1="669.38" y1="28.00" x2="669.38" y2="52.00" stroke="#000" stroke-width="1.5"/>
<line x1="669.38" y1="52.00" x2="749.95" y2="52.00" stroke="#000" stroke-width="1.5"/>
<line x1="749.95" y1="52.00" x2="749.95" y2="28.00" stroke="#000" stroke-width="1.5"/>
<line x1="749.95" y1="28.00" x2="830.51" y2="28.00" stroke="#000" stroke-width="1.5"/>
<line x1="830.51" y1="28.00" x2="830.51" y2="52.00" stroke="#000" stroke-width="1.5"/>
<line x1="830.51" y1="52.00" x2="911.08" y2="52.00" stroke="#000" stroke-width="1.5"/>
<line x1="911.08" y1="52.00" x2="911.08" y2="28.00" stroke="#000" stroke-width="1.5"/>
<line x1="911.08" y1="28.00" x2="986.00" y2="28.00" stroke="#000" stroke-width="1.5"/>
<text x="174.00" y="88.00" font-family="monospace" font-size="12" text-anchor="end" fill="#000">tb_top.dut.state</text>
<polygon points="186.00,84.00 194.00,72.00 978.00,72.00 986.00,84.00 978.00,96.00 194.00,96.00" fill="#eef2ff" stroke="#333"/>
<text x="586.00" y="84.00" font-family="monospace" font-size="11" text-anchor="middle" dominant-baseline="middle" fill="#000">010</text>
<text x="174.00" y="132.00" font-family="monospace" font-size="12" text-anchor="end" fill="#000">tb_top.dut.letra_in</text>
<polygon points="186.00,128.00 194.00,116.00 944.76,116.00 952.76,128.00 944.76,140.00 194.00,140.00" fill="#eef2ff" stroke="#333"/>
<text x="569.38" y="128.00" font-family="monospace" font-size="11" text-anchor="middle" dominant-baseline="middle" fill="#000">00000000</text>
<polygon points="952.76,128.00 960.76,116.00 978.00,116.00 986.00,128.00 978.00,140.00 960.76,140.00" fill="#eef2ff" stroke="#333"/>
<text x="174.00" y="176.00" font-family="monospace" font-size="12" text-anchor="end" fill="#000">tb_top.dut.letra_nueva</text>
<line x1="186.00" y1="184.00" x2="952.76" y2="184.00" stroke="#000" stroke-width="1.5"/>
<rect x="952.76" y="156.00" width="33.24" height="32.00" fill="#ccc"/>
<text x="174.00" y="220.00" font-family="monospace" font-size="12" text-anchor="end" fill="#000">tb_top.dut.try</text>
<line x1="186.00" y1="228.00" x2="952.76" y2="228.00" stroke="#000" stroke-width="1.5"/>
<rect x="952.76" y="200.00" width="33.24" height="32.00" fill="#ccc"/>
<text x="174.00" y="264.00" font-family="monospace" font-size="12" text-anchor="end" fill="#000">tb_top.dut.intentos</text>
<polygon points="186.00,260.00 194.00,248.00 944.85,248.00 952.85,260.00 944.85,272.00 194.00,272.00" fill="#eef2ff" stroke="#333"/>
<text x="569.43" y="260.00" font-family="monospace" font-size="11" text-anchor="middle" dominant-baseline="middle" fill="#000">000</text>
<polygon points="952.85,260.00 960.85,248.00 978.00,248.00 986.00,260.00 978.00,272.00 960.85,272.00" fill="#eef2ff" stroke="#333"/>
<text x="174.00" y="308.00" font-family="monospace" font-size="12" text-anchor="end" fill="#000">tb_top.dut.mascara</text>
<polygon points="186.00,304.00 194.00,292.00 978.00,292.00 986.00,304.00 978.00,316.00 194.00,316.00" fill="#eef2ff" stroke="#333"/>
<text x="586.00" y="304.00" font-family="monospace" font-size="11" text-anchor="middle" dominant-baseline="middle" fill="#000">111111100000</text>
</svg>
