<svg xmlns="http://www.w3.org/2000/svg" width="1062.00" height="308.00" viewBox="0 0 1062.00 308.00">
<rect width="100%" height="100%" fill="#fff"/>
<line x1="242.00" y1="16.00" x2="242.00" y2="280.00" stroke="#ccc"/>
<text x="242.00" y="292.00" font-family="monospace" font-size="10" text-anchor="middle" fill="#666">0</text>
<line x1="337.24" y1="16.00" x2="337.24" y2="280.00" stroke="#ccc"/>
<text x="337.24" y="292.00" font-family="monospace" font-size="10" text-anchor="middle" fill="#666">50000</text>
<line x1="432.48" y1="16.00" x2="432.48" y2="280.00" stroke="#ccc"/>
<text x="432.48" y="292.00" font-family="monospace" font-size="10" text-anchor="middle" fill="#666">100000</text>
<line x1="527.71" y1="16.00" x2="527.71" y2="280.00" stroke="#ccc"/>
<text x="527.71" y="292.00" font-family="monospace" font-size="10" text-anchor="middle" fill="#666">150000</text>
<line x1="622.95" y1="16.00" x2="622.95" y2="280.00" stroke="#ccc"/>
<text x="622.95" y="292.00" font-family="monospace" font-size="10" text-anchor="middle" fill="#666">200000</text>
<line x1="718.19" y1="16.00" x2="718.19" y2="280.00" stroke="#ccc"/>
<text x="718.19" y="292.00" font-family="monospace" font-size="10" text-anchor="middle" fill="#666">250000</text>
<line x1="813.43" y1="16.00" x2="813.43" y2="280.00" stroke="#ccc"/>
<text x="813.43" y="292.00" font-family="monospace" font-size="10" text-anchor="middle" fill="#666">300000</text>
<line x1="908.67" y1="16.00" x2="908.67" y2="280.00" stroke="#ccc"/>
<text x="908.67" y="292.00" font-family="monospace" font-size="10" text-anchor="middle" fill="#666">350000</text>
<line x1="1003.90" y1="16.00" x2="1003.90" y2="280.00" stroke="#ccc"/>
<text x="1003.90" y="292.00" font-family="monospace" font-size="10" text-anchor="middle" fill="#666">400000</text>
<text x="230.00" y="44.00" font-family="monospace" font-size="12" text-anchor="end" fill="#000">tb_temporizador.i_state</text>
<polygon points="242.00,40.00 250.00,28.00 683.52,28.00 691.52,40.00 683.52,52.00 250.00,52.00" fill="#eef2ff" stroke="#333"/>
<text x="466.76" y="40.00" font-family="monospace" font-size="11" text-anchor="middle" dominant-baseline="middle" fill="#000">010</text>
<polygon points="691.52,40.00 699.52,28.00 950.19,28.00 958.19,40.00 950.19,52.00 699.52,52.00" fill="#eef2ff" stroke="#333"/>
<text x="824.86" y="40.00" font-family="monospace" font-size="11" text-anchor="middle" dominant-baseline="middle" fill="#000">011</text>
<polygon points="958.19,40.00 966.19,28.00 988.29,28.00 996.29,40.00 988.29,52.00 966.19,52.00" fill="#eef2ff" stroke="#333"/>
<text x="977.24" y="40.00" font-family="monospace" font-size="11" text-anchor="middle" dominant-baseline="middle" fill="#000">000</text>
<polygon points="996.29,40.00 1004.29,28.00 1034.00,28.00 1042.00,40.00 1034.00,52.00 1004.29,52.00" fill="#eef2ff" stroke="#333"/>
<text x="1019.14" y="40.00" font-family="monospace" font-size="11" text-anchor="middle" dominant-baseline="middle" fill="#000">010</text>
<text x="230.00" y="88.00" font-family="monospace" font-size="12" text-anchor="end" fill="#000">tb_temporizador.dut.tick_1hz</text>
<line x1="242.00" y1="96.00" x2="289.62" y2="96.00" stroke="#000" stroke-width="1.5"/>
<line x1="289.62" y1="96.00" x2="289.62" y2="72.00" stroke="#000" stroke-width="1.5"/>
<line x1="289.62" y1="72.00" x2="308.67" y2="72.00" stroke="#000" stroke-width="1.5"/>
<line x1="308.67" y1="72.00" x2="308.67" y2="96.00" stroke="#000" stroke-width="1.5"/>
<line x1="308.67" y1="96.00" x2="365.81" y2="96.00" stroke="#000" stroke-width="1.5"/>
<line x1="365.81" y1="96.00" x2="365.81" y2="72.00" stroke="#000" stroke-width="1.5"/>
<line x1="365.81" y1="72.00" x2="384.86" y2="72.00" stroke="#000" stroke-width="1.5"/>
<line x1="384.86" y1="72.00" x2="384.86" y2="96.00" stroke="#000" stroke-width="1.5"/>
<line x1="384.86" y1="96.00" x2="442.00" y2="96.00" stroke="#000" stroke-width="1.5"/>
<line x1="442.00" y1="96.00" x2="442.00" y2="72.00" stroke="#000" stroke-width="1.5"/>
<line x1="442.00" y1="72.00" x2="461.05" y2="72.00" stroke="#000" stroke-width="1.5"/>
<line x1="461.05" y1="72.00" x2="461.05" y2="96.00" stroke="#000" stroke-width="1.5"/>
<line x1="461.05" y1="96.00" x2="518.19" y2="96.00" stroke="#000" stroke-width="1.5"/>
<line x1="518.19" y1="96.00" x2="518.19" y2="72.00" stroke="#000" stroke-width="1.5"/>
<line x1="518.19" y1="72.00" x2="537.24" y2="72.00" stroke="#000" stroke-width="1.5"/>
<line x1="537.24" y1="72.00" x2="537.24" y2="96.00" stroke="#000" stroke-width="1.5"/>
<line x1="537.24" y1="96.00" x2="594.38" y2="96.00" stroke="#000" stroke-width="1.5"/>
<line x1="594.38" y1="96.00" x2="594.38" y2="72.00" stroke="#000" stroke-width="1.5"/>
<line x1="594.38" y1="72.00" x2="613.43" y2="72.00" stroke="#000" stroke-width="1.5"/>
<line x1="613.43" y1="72.00" x2="613.43" y2="96.00" stroke="#000" stroke-width="1.5"/>
<line x1="613.43" y1="96.00" x2="670.57" y2="96.00" stroke="#000" stroke-width="1.5"/>
<line x1="670.57" y1="96.00" x2="670.57" y2="72.00" stroke="#000" stroke-width="1.5"/>
<line x1="670.57" y1="72.00" x2="689.62" y2="72.00" stroke="#000" stroke-width="1.5"/>
<line x1="689.62" y1="72.00" x2="689.62" y2="96.00" stroke="#000" stroke-width="1.5"/>
<line x1="689.62" y1="96.00" x2="746.76" y2="96.00" stroke="#000" stroke-width="1.5"/>
<line x1="746.76" y1="96.00" x2="746.76" y2="72.00" stroke="#000" stroke-width="1.5"/>
<line x1="746.76" y1="72.00" x2="765.81" y2="72.00" stroke="#000" stroke-width="1.5"/>
<line x1="765.81" y1="72.00" x2="765.81" y2="96.00" stroke="#000" stroke-width="1.5"/>
<line x1="765.81" y1="96.00" x2="822.95" y2="96.00" stroke="#000" stroke-width="1.5"/>
<line x1="822.95" y1="96.00" x2="822.95" y2="72.00" stroke="#000" stroke-width="1.5"/>
<line x1="822.95" y1="72.00" x2="842.00" y2="72.00" stroke="#000" stroke-width="1.5"/>
<line x1="842.00" y1="72.00" x2="842.00" y2="96.00" stroke="#000" stroke-width="1.5"/>
<line x1="842.00" y1="96.00" x2="899.14" y2="96.00" stroke="#000" stroke-width="1.5"/>
<line x1="899.14" y1="96.00" x2="899.14" y2="72.00" stroke="#000" stroke-width="1.5"/>
<line x1="899.14" y1="72.00" x2="918.19" y2="72.00" stroke="#000" stroke-width="1.5"/>
<line x1="918.19" y1="72.00" x2="918.19" y2="96.00" stroke="#000" stroke-width="1.5"/>
<line x1="918.19" y1="96.00" x2="975.33" y2="96.00" stroke="#000" stroke-width="1.5"/>
<line x1="975.33" y1="96.00" x2="975.33" y2="72.00" stroke="#000" stroke-width="1.5"/>
<line x1="975.33" y1="72.00" x2="994.38" y2="72.00" stroke="#000" stroke-width="1.5"/>
<line x1="994.38" y1="72.00" x2="994.38" y2="96.00" stroke="#000" stroke-width="1.5"/>
<line x1="994.38" y1="96.00" x2="1042.00" y2="96.00" stroke="#000" stroke-width="1.5"/>
<text x="230.00" y="132.00" font-family="monospace" font-size="12" text-anchor="end" fill="#000">tb_temporizador.dut.running</text>
<line x1="242.00" y1="116.00" x2="480.10" y2="116.00" stroke="#000" stroke-width="1.5"/>
<line x1="480.10" y1="116.00" x2="480.10" y2="140.00" stroke="#000" stroke-width="1.5"/>
<line x1="480.10" y1="140.00" x2="1013.43" y2="140.00" stroke="#000" stroke-width="1.5"/>
<line x1="1013.43" y1="140.00" x2="1013.43" y2="116.00" stroke="#000" stroke-width="1.5"/>
<line x1="1013.43" y1="116.00" x2="1042.00" y2="116.00" stroke="#000" stroke-width="1.5"/>
<text x="230.00" y="176.00" font-family="monospace" font-size="12" text-anchor="end" fill="#000">tb_temporizador.tiempo</text>
<polygon points="242.00,172.00 250.00,160.00 300.67,160.00 308.67,172.00 300.67,184.00 250.00,184.00" fill="#eef2ff" stroke="#333"/>
<polygon points="308.67,172.00 316.67,160.00 376.86,160.00 384.86,172.00 376.86,184.00 316.67,184.00" fill="#eef2ff" stroke="#333"/>
<text x="346.76" y="172.00" font-family="monospace" font-size="11" text-anchor="middle" dominant-baseline="middle" fill="#000">00000010</text>
<polygon points="384.86,172.00 392.86,160.00 453.05,160.00 461.05,172.00 453.05,184.00 392.86,184.00" fill="#eef2ff" stroke="#333"/>
<text x="422.95" y="172.00" font-family="monospace" font-size="11" text-anchor="middle" dominant-baseline="middle" fill="#000">00000001</text>
<polygon points="461.05,172.00 469.05,160.00 1005.43,160.00 1013.43,172.00 1005.43,184.00 469.05,184.00" fill="#eef2ff" stroke="#333"/>
<text x="737.24" y="172.00" font-family="monospace" font-size="11" text-anchor="middle" dominant-baseline="middle" fill="#000">00000000</text>
<polygon points="1013.43,172.00 1021.43,160.00 1034.00,160.00 1042.00,172.00 1034.00,184.00 1021.43,184.00" fill="#eef2ff" stroke="#333"/>
<text x="230.00" y="220.00" font-family="monospace" font-size="12" text-anchor="end" fill="#000">tb_temporizador.tiempo_agotado</text>
<line x1="242.00" y1="228.00" x2="480.10" y2="228.00" stroke="#000" stroke-width="1.5"/>
<line x1="480.10" y1="228.00" x2="480.10" y2="204.00" stroke="#000" stroke-width="1.5"/>
<line x1="480.10" y1="204.00" x2="708.67" y2="204.00" stroke="#000" stroke-width="1.5"/>
<line x1="708.67" y1="204.00" x2="708.67" y2="228.00" stroke="#000" stroke-width="1.5"/>
<line x1="708.67" y1="228.00" x2="1042.00" y2="228.00" stroke="#000" stroke-width="1.5"/>
<text x="230.00" y="264.00" font-family="monospace" font-size="12" text-anchor="end" fill="#000">tb_temporizador.fin_espera</text>
<line x1="242.00" y1="272.00" x2="918.19" y2="272.00" stroke="#000" stroke-width="1.5"/>
<line x1="918.19" y1="272.00" x2="918.19" y2="248.00" stroke="#000" stroke-width="1.5"/>
<line x1="918.19" y1="248.00" x2="1013.43" y2="248.00" stroke="#000" stroke-width="1.5"/>
<line x1="1013.43" y1="248.00" x2="1013.43" y2="272.00" stroke="#000" stroke-width="1.5"/>
<line x1="1013.43" y1="272.00" x2="1042.00" y2="272.00" stroke="#000" stroke-width="1.5"/>
</svg>
