<svg xmlns="http://www.w3.org/2000/svg" width="1069.00" height="352.00" viewBox="0 0 1069.00 352.00">
<rect width="100%" height="100%" fill="#fff"/>
<line x1="249.00" y1="16.00" x2="249.00" y2="324.00" stroke="#ccc"/>
<text x="249.00" y="336.00" font-family="monospace" font-size="10" text-anchor="middle" fill="#666">0</text>
<line x1="320.75" y1="16.00" x2="320.75" y2="324.00" stroke="#ccc"/>
<text x="320.75" y="336.00" font-family="monospace" font-size="10" text-anchor="middle" fill="#666">200000</text>
<line x1="392.50" y1="16.00" x2="392.50" y2="324.00" stroke="#ccc"/>
<text x="392.50" y="336.00" font-family="monospace" font-size="10" text-anchor="middle" fill="#666">400000</text>
<line x1="464.25" y1="16.00" x2="464.25" y2="324.00" stroke="#ccc"/>
<text x="464.25" y="336.00" font-family="monospace" font-size="10" text-anchor="middle" fill="#666">600000</text>
<line x1="536.00" y1="16.00" x2="536.00" y2="324.00" stroke="#ccc"/>
<text x="536.00" y="336.00" font-family="monospace" font-size="10" text-anchor="middle" fill="#666">800000</text>
<line x1="607.74" y1="16.00" x2="607.74" y2="324.00" stroke="#ccc"/>
<text x="607.74" y="336.00" font-family="monospace" font-size="10" text-anchor="middle" fill="#666">1000000</text>
<line x1="679.49" y1="16.00" x2="679.49" y2="324.00" stroke="#ccc"/>
<text x="679.49" y="336.00" font-family="monospace" font-size="10" text-anchor="middle" fill="#666">1200000</text>
<line x1="751.24" y1="16.00" x2="751.24" y2="324.00" stroke="#ccc"/>
<text x="751.24" y="336.00" font-family="monospace" font-size="10" text-anchor="middle" fill="#666">1400000</text>
<line x1="822.99" y1="16.00" x2="822.99" y2="324.00" stroke="#ccc"/>
<text x="822.99" y="336.00" font-family="monospace" font-size="10" text-anchor="middle" fill="#666">1600000</text>
<line x1="894.74" y1="16.00" x2="894.74" y2="324.00" stroke="#ccc"/>
<text x="894.74" y="336.00" font-family="monospace" font-size="10" text-anchor="middle" fill="#666">1800000</text>
<line x1="966.49" y1="16.00" x2="966.49" y2="324.00" stroke="#ccc"/>
<text x="966.49" y="336.00" font-family="monospace" font-size="10" text-anchor="middle" fill="#666">2000000</text>
<line x1="1038.24" y1="16.00" x2="1038.24" y2="324.00" stroke="#ccc"/>
<text x="1038.24" y="336.00" font-family="monospace" font-size="10" text-anchor="middle" fill="#666">2200000</text>
<text x="237.00" y="44.00" font-family="monospace" font-size="12" text-anchor="end" fill="#000">i_state_tb</text>
<polygon points="249.00,40.00 257.00,28.00 275.44,28.00 283.44,40.00 275.44,52.00 257.00,52.00" fill="#eef2ff" stroke="#333"/>
<polygon points="283.44,40.00 291.44,28.00 1041.00,28.00 1049.00,40.00 1041.00,52.00 291.44,52.00" fill="#eef2ff" stroke="#333"/>
<text x="666.22" y="40.00" font-family="monospace" font-size="11" text-anchor="middle" dominant-baseline="middle" fill="#000">010</text>
<text x="237.00" y="88.00" font-family="monospace" font-size="12" text-anchor="end" fill="#000">i_letra_lista_tb</text>
<line x1="249.00" y1="96.00" x2="606.31" y2="96.00" stroke="#000" stroke-width="1.5"/>
<line x1="606.31" y1="96.00" x2="606.31" y2="72.00" stroke="#000" stroke-width="1.5"/>
<line x1="606.31" y1="72.00" x2="609.90" y2="72.00" stroke="#000" stroke-width="1.5"/>
<line x1="609.90" y1="72.00" x2="609.90" y2="96.00" stroke="#000" stroke-width="1.5"/>
<line x1="609.90" y1="96.00" x2="1049.00" y2="96.00" stroke="#000" stroke-width="1.5"/>
<text x="237.00" y="132.00" font-family="monospace" font-size="12" text-anchor="end" fill="#000">tb_transmisor_uart.dut.estado</text>
<polygon points="249.00,128.00 257.00,116.00 282.26,116.00 290.26,128.00 282.26,140.00 257.00,140.00" fill="#eef2ff" stroke="#333"/>
<text x="269.63" y="128.00" font-family="monospace" font-size="11" text-anchor="middle" dominant-baseline="middle" fill="#000">00</text>
<polygon points="290.26,128.00 292.05,116.00 292.05,116.00 293.84,128.00 292.05,140.00 292.05,140.00" fill="#eef2ff" stroke="#333"/>
<polygon points="293.84,128.00 295.64,116.00 295.64,116.00 297.43,128.00 295.64,140.00 295.64,140.00" fill="#eef2ff" stroke="#333"/>
<polygon points="297.43,128.00 305.43,116.00 364.77,116.00 372.77,128.00 364.77,140.00 305.43,140.00" fill="#eef2ff" stroke="#333"/>
<text x="335.10" y="128.00" font-family="monospace" font-size="11" text-anchor="middle" dominant-baseline="middle" fill="#000">11</text>
<polygon points="372.77,128.00 374.56,116.00 374.56,116.00 376.35,128.00 374.56,140.00 374.56,140.00" fill="#eef2ff" stroke="#333"/>
<polygon points="376.35,128.00 378.15,116.00 378.15,116.00 379.94,128.00 378.15,140.00 378.15,140.00" fill="#eef2ff" stroke="#333"/>
<polygon points="379.94,128.00 387.94,116.00 447.28,116.00 455.28,128.00 447.28,140.00 387.94,140.00" fill="#eef2ff" stroke="#333"/>
<text x="417.61" y="128.00" font-family="monospace" font-size="11" text-anchor="middle" dominant-baseline="middle" fill="#000">11</text>
<polygon points="455.28,128.00 457.07,116.00 457.07,116.00 458.87,128.00 457.07,140.00 457.07,140.00" fill="#eef2ff" stroke="#333"/>
<polygon points="458.87,128.00 460.66,116.00 460.66,116.00 462.45,128.00 460.66,140.00 460.66,140.00" fill="#eef2ff" stroke="#333"/>
<polygon points="462.45,128.00 470.45,116.00 529.79,116.00 537.79,128.00 529.79,140.00 470.45,140.00" fill="#eef2ff" stroke="#333"/>
<text x="500.12" y="128.00" font-family="monospace" font-size="11" text-anchor="middle" dominant-baseline="middle" fill="#000">11</text>
<polygon points="537.79,128.00 545.79,116.00 605.13,116.00 613.13,128.00 605.13,140.00 545.79,140.00" fill="#eef2ff" stroke="#333"/>
<text x="575.46" y="128.00" font-family="monospace" font-size="11" text-anchor="middle" dominant-baseline="middle" fill="#000">00</text>
<polygon points="613.13,128.00 614.92,116.00 614.92,116.00 616.71,128.00 614.92,140.00 614.92,140.00" fill="#eef2ff" stroke="#333"/>
<polygon points="616.71,128.00 618.51,116.00 618.51,116.00 620.30,128.00 618.51,140.00 618.51,140.00" fill="#eef2ff" stroke="#333"/>
<polygon points="620.30,128.00 628.30,116.00 687.64,116.00 695.64,128.00 687.64,140.00 628.30,140.00" fill="#eef2ff" stroke="#333"/>
<text x="657.97" y="128.00" font-family="monospace" font-size="11" text-anchor="middle" dominant-baseline="middle" fill="#000">11</text>
<polygon points="695.64,128.00 697.43,116.00 697.43,116.00 699.22,128.00 697.43,140.00 697.43,140.00" fill="#eef2ff" stroke="#333"/>
<polygon points="699.22,128.00 701.02,116.00 701.02,116.00 702.81,128.00 701.02,140.00 701.02,140.00" fill="#eef2ff" stroke="#333"/>
<polygon points="702.81,128.00 710.81,116.00 770.15,116.00 778.15,128.00 770.15,140.00 710.81,140.00" fill="#eef2ff" stroke="#333"/>
<text x="740.48" y="128.00" font-family="monospace" font-size="11" text-anchor="middle" dominant-baseline="middle" fill="#000">11</text>
<polygon points="778.15,128.00 779.94,116.00 779.94,116.00 781.74,128.00 779.94,140.00 779.94,140.00" fill="#eef2ff" stroke="#333"/>
<polygon points="781.74,128.00 783.53,116.00 783.53,116.00 785.32,128.00 783.53,140.00 783.53,140.00" fill="#eef2ff" stroke="#333"/>
<polygon points="785.32,128.00 793.32,116.00 852.66,116.00 860.66,128.00 852.66,140.00 793.32,140.00" fill="#eef2ff" stroke="#333"/>
<text x="822.99" y="128.00" font-family="monospace" font-size="11" text-anchor="middle" dominant-baseline="middle" fill="#000">11</text>
<polygon points="860.66,128.00 862.45,116.00 862.45,116.00 864.25,128.00 862.45,140.00 862.45,140.00" fill="#eef2ff" stroke="#333"/>
<polygon points="864.25,128.00 866.04,116.00 866.04,116.00 867.83,128.00 866.04,140.00 866.04,140.00" fill="#eef2ff" stroke="#333"/>
<polygon points="867.83,128.00 875.83,116.00 935.17,116.00 943.17,128.00 935.17,140.00 875.83,140.00" fill="#eef2ff" stroke="#333"/>
<text x="905.50" y="128.00" font-family="monospace" font-size="11" text-anchor="middle" dominant-baseline="middle" fill="#000">11</text>
<polygon points="943.17,128.00 944.96,116.00 944.96,116.00 946.76,128.00 944.96,140.00 944.96,140.00" fill="#eef2ff" stroke="#333"/>
<polygon points="946.76,128.00 948.55,116.00 948.55,116.00 950.35,128.00 948.55,140.00 948.55,140.00" fill="#eef2ff" stroke="#333"/>
<polygon points="950.35,128.00 958.35,116.00 1017.68,116.00 1025.68,128.00 1017.68,140.00 958.35,140.00" fill="#eef2ff" stroke="#333"/>
<text x="988.01" y="128.00" font-family="monospace" font-size="11" text-anchor="middle" dominant-baseline="middle" fill="#000">11</text>
<polygon points="1025.68,128.00 1033.68,116.00 1041.00,116.00 1049.00,128.00 1041.00,140.00 1033.68,140.00" fill="#eef2ff" stroke="#333"/>
<text x="237.00" y="176.00" font-family="monospace" font-size="12" text-anchor="end" fill="#000">tb_transmisor_uart.dut.cnt_byte</text>
<polygon points="249.00,172.00 257.00,160.00 364.77,160.00 372.77,172.00 364.77,184.00 257.00,184.00" fill="#eef2ff" stroke="#333"/>
<text x="310.88" y="172.00" font-family="monospace" font-size="11" text-anchor="middle" dominant-baseline="middle" fill="#000">000</text>
<polygon points="372.77,172.00 380.77,160.00 447.28,160.00 455.28,172.00 447.28,184.00 380.77,184.00" fill="#eef2ff" stroke="#333"/>
<text x="414.02" y="172.00" font-family="monospace" font-size="11" text-anchor="middle" dominant-baseline="middle" fill="#000">001</text>
<polygon points="455.28,172.00 463.28,160.00 605.13,160.00 613.13,172.00 605.13,184.00 463.28,184.00" fill="#eef2ff" stroke="#333"/>
<text x="534.20" y="172.00" font-family="monospace" font-size="11" text-anchor="middle" dominant-baseline="middle" fill="#000">010</text>
<polygon points="613.13,172.00 621.13,160.00 687.64,160.00 695.64,172.00 687.64,184.00 621.13,184.00" fill="#eef2ff" stroke="#333"/>
<text x="654.38" y="172.00" font-family="monospace" font-size="11" text-anchor="middle" dominant-baseline="middle" fill="#000">000</text>
<polygon points="695.64,172.00 703.64,160.00 770.15,160.00 778.15,172.00 770.15,184.00 703.64,184.00" fill="#eef2ff" stroke="#333"/>
<text x="736.89" y="172.00" font-family="monospace" font-size="11" text-anchor="middle" dominant-baseline="middle" fill="#000">001</text>
<polygon points="778.15,172.00 786.15,160.00 852.66,160.00 860.66,172.00 852.66,184.00 786.15,184.00" fill="#eef2ff" stroke="#333"/>
<text x="819.40" y="172.00" font-family="monospace" font-size="11" text-anchor="middle" dominant-baseline="middle" fill="#000">010</text>
<polygon points="860.66,172.00 868.66,160.00 935.17,160.00 943.17,172.00 935.17,184.00 868.66,184.00" fill="#eef2ff" stroke="#333"/>
<text x="901.91" y="172.00" font-family="monospace" font-size="11" text-anchor="middle" dominant-baseline="middle" fill="#000">011</text>
<polygon points="943.17,172.00 951.17,160.00 1041.00,160.00 1049.00,172.00 1041.00,184.00 951.17,184.00" fill="#eef2ff" stroke="#333"/>
<text x="996.09" y="172.00" font-family="monospace" font-size="11" text-anchor="middle" dominant-baseline="middle" fill="#000">100</text>
<text x="237.00" y="220.00" font-family="monospace" font-size="12" text-anchor="end" fill="#000">o_addr_tb</text>
<polygon points="249.00,216.00 257.00,204.00 282.26,204.00 290.26,216.00 282.26,228.00 257.00,228.00" fill="#eef2ff" stroke="#333"/>
<text x="269.63" y="216.00" font-family="monospace" font-size="11" text-anchor="middle" dominant-baseline="middle" fill="#000">10</text>
<polygon points="290.26,216.00 292.05,204.00 292.05,204.00 293.84,216.00 292.05,228.00 292.05,228.00" fill="#eef2ff" stroke="#333"/>
<polygon points="293.84,216.00 301.84,204.00 364.77,204.00 372.77,216.00 364.77,228.00 301.84,228.00" fill="#eef2ff" stroke="#333"/>
<text x="333.30" y="216.00" font-family="monospace" font-size="11" text-anchor="middle" dominant-baseline="middle" fill="#000">10</text>
<polygon points="372.77,216.00 374.56,204.00 374.56,204.00 376.35,216.00 374.56,228.00 374.56,228.00" fill="#eef2ff" stroke="#333"/>
<polygon points="376.35,216.00 384.35,204.00 447.28,204.00 455.28,216.00 447.28,228.00 384.35,228.00" fill="#eef2ff" stroke="#333"/>
<text x="415.82" y="216.00" font-family="monospace" font-size="11" text-anchor="middle" dominant-baseline="middle" fill="#000">10</text>
<polygon points="455.28,216.00 457.07,204.00 457.07,204.00 458.87,216.00 457.07,228.00 457.07,228.00" fill="#eef2ff" stroke="#333"/>
<polygon points="458.87,216.00 466.87,204.00 605.13,204.00 613.13,216.00 605.13,228.00 466.87,228.00" fill="#eef2ff" stroke="#333"/>
<text x="536.00" y="216.00" font-family="monospace" font-size="11" text-anchor="middle" dominant-baseline="middle" fill="#000">10</text>
<polygon points="613.13,216.00 614.92,204.00 614.92,204.00 616.71,216.00 614.92,228.00 614.92,228.00" fill="#eef2ff" stroke="#333"/>
<polygon points="616.71,216.00 624.71,204.00 687.64,204.00 695.64,216.00 687.64,228.00 624.71,228.00" fill="#eef2ff" stroke="#333"/>
<text x="656.17" y="216.00" font-family="monospace" font-size="11" text-anchor="middle" dominant-baseline="middle" fill="#000">10</text>
<polygon points="695.64,216.00 697.43,204.00 697.43,204.00 699.22,216.00 697.43,228.00 697.43,228.00" fill="#eef2ff" stroke="#333"/>
<polygon points="699.22,216.00 707.22,204.00 770.15,204.00 778.15,216.00 770.15,228.00 707.22,228.00" fill="#eef2ff" stroke="#333"/>
<text x="738.69" y="216.00" font-family="monospace" font-size="11" text-anchor="middle" dominant-baseline="middle" fill="#000">10</text>
<polygon points="778.15,216.00 779.94,204.00 779.94,204.00 781.74,216.00 779.94,228.00 779.94,228.00" fill="#eef2ff" stroke="#333"/>
<polygon points="781.74,216.00 789.74,204.00 852.66,204.00 860.66,216.00 852.66,228.00 789.74,228.00" fill="#eef2ff" stroke="#333"/>
<text x="821.20" y="216.00" font-family="monospace" font-size="11" text-anchor="middle" dominant-baseline="middle" fill="#000">10</text>
<polygon points="860.66,216.00 862.45,204.00 862.45,204.00 864.25,216.00 862.45,228.00 862.45,228.00" fill="#eef2ff" stroke="#333"/>
<polygon points="864.25,216.00 872.25,204.00 935.17,204.00 943.17,216.00 935.17,228.00 872.25,228.00" fill="#eef2ff" stroke="#333"/>
<text x="903.71" y="216.00" font-family="monospace" font-size="11" text-anchor="middle" dominant-baseline="middle" fill="#000">10</text>
<polygon points="943.17,216.00 944.96,204.00 944.96,204.00 946.76,216.00 944.96,228.00 944.96,228.00" fill="#eef2ff" stroke="#333"/>
<polygon points="946.76,216.00 954.76,204.00 1041.00,204.00 1049.00,216.00 1041.00,228.00 954.76,228.00" fill="#eef2ff" stroke="#333"/>
<text x="997.88" y="216.00" font-family="monospace" font-size="11" text-anchor="middle" dominant-baseline="middle" fill="#000">10</text>
<text x="237.00" y="264.00" font-family="monospace" font-size="12" text-anchor="end" fill="#000">o_write_enable_tb</text>
<line x1="249.00" y1="272.00" x2="290.26" y2="272.00" stroke="#000" stroke-width="1.5"/>
<line x1="290.26" y1="272.00" x2="290.26" y2="248.00" stroke="#000" stroke-width="1.5"/>
<line x1="290.26" y1="248.00" x2="293.84" y2="248.00" stroke="#000" stroke-width="1.5"/>
<line x1="293.84" y1="248.00" x2="297.43" y2="248.00" stroke="#000" stroke-width="1.5"/>
<line x1="297.43" y1="248.00" x2="297.43" y2="272.00" stroke="#000" stroke-width="1.5"/>
<line x1="297.43" y1="272.00" x2="372.77" y2="272.00" stroke="#000" stroke-width="1.5"/>
<line x1="372.77" y1="272.00" x2="372.77" y2="248.00" stroke="#000" stroke-width="1.5"/>
<line x1="372.77" y1="248.00" x2="376.35" y2="248.00" stroke="#000" stroke-width="1.5"/>
<line x1="376.35" y1="248.00" x2="379.94" y2="248.00" stroke="#000" stroke-width="1.5"/>
<line x1="379.94" y1="248.00" x2="379.94" y2="272.00" stroke="#000" stroke-width="1.5"/>
<line x1="379.94" y1="272.00" x2="455.28" y2="272.00" stroke="#000" stroke-width="1.5"/>
<line x1="455.28" y1="272.00" x2="455.28" y2="248.00" stroke="#000" stroke-width="1.5"/>
<line x1="455.28" y1="248.00" x2="458.87" y2="248.00" stroke="#000" stroke-width="1.5"/>
<line x1="458.87" y1="248.00" x2="462.45" y2="248.00" stroke="#000" stroke-width="1.5"/>
<line x1="462.45" y1="248.00" x2="462.45" y2="272.00" stroke="#000" stroke-width="1.5"/>
<line x1="462.45" y1="272.00" x2="613.13" y2="272.00" stroke="#000" stroke-width="1.5"/>
<line x1="613.13" y1="272.00" x2="613.13" y2="248.00" stroke="#000" stroke-width="1.5"/>
<line x1="613.13" y1="248.00" x2="616.71" y2="248.00" stroke="#000" stroke-width="1.5"/>
<line x1="616.71" y1="248.00" x2="620.30" y2="248.00" stroke="#000" stroke-width="1.5"/>
<line x1="620.30" y1="248.00" x2="620.30" y2="272.00" stroke="#000" stroke-width="1.5"/>
<line x1="620.30" y1="272.00" x2="695.64" y2="272.00" stroke="#000" stroke-width="1.5"/>
<line x1="695.64" y1="272.00" x2="695.64" y2="248.00" stroke="#000" stroke-width="1.5"/>
<line x1="695.64" y1="248.00" x2="699.22" y2="248.00" stroke="#000" stroke-width="1.5"/>
<line x1="699.22" y1="248.00" x2="702.81" y2="248.00" stroke="#000" stroke-width="1.5"/>
<line x1="702.81" y1="248.00" x2="702.81" y2="272.00" stroke="#000" stroke-width="1.5"/>
<line x1="702.81" y1="272.00" x2="778.15" y2="272.00" stroke="#000" stroke-width="1.5"/>
<line x1="778.15" y1="272.00" x2="778.15" y2="248.00" stroke="#000" stroke-width="1.5"/>
<line x1="778.15" y1="248.00" x2="781.74" y2="248.00" stroke="#000" stroke-width="1.5"/>
<line x1="781.74" y1="248.00" x2="785.32" y2="248.00" stroke="#000" stroke-width="1.5"/>
<line x1="785.32" y1="248.00" x2="785.32" y2="272.00" stroke="#000" stroke-width="1.5"/>
<line x1="785.32" y1="272.00" x2="860.66" y2="272.00" stroke="#000" stroke-width="1.5"/>
<line x1="860.66" y1="272.00" x2="860.66" y2="248.00" stroke="#000" stroke-width="1.5"/>
<line x1="860.66" y1="248.00" x2="864.25" y2="248.00" stroke="#000" stroke-width="1.5"/>
<line x1="864.25" y1="248.00" x2="867.83" y2="248.00" stroke="#000" stroke-width="1.5"/>
<line x1="867.83" y1="248.00" x2="867.83" y2="272.00" stroke="#000" stroke-width="1.5"/>
<line x1="867.83" y1="272.00" x2="943.17" y2="272.00" stroke="#000" stroke-width="1.5"/>
<line x1="943.17" y1="272.00" x2="943.17" y2="248.00" stroke="#000" stroke-width="1.5"/>
<line x1="943.17" y1="248.00" x2="946.76" y2="248.00" stroke="#000" stroke-width="1.5"/>
<line x1="946.76" y1="248.00" x2="950.35" y2="248.00" stroke="#000" stroke-width="1.5"/>
<line x1="950.35" y1="248.00" x2="950.35" y2="272.00" stroke="#000" stroke-width="1.5"/>
<line x1="950.35" y1="272.00" x2="1049.00" y2="272.00" stroke="#000" stroke-width="1.5"/>
<text x="237.00" y="308.00" font-family="monospace" font-size="12" text-anchor="end" fill="#000">tb_transmisor_uart.send</text>
<line x1="249.00" y1="316.00" x2="297.43" y2="316.00" stroke="#000" stroke-width="1.5"/>
<line x1="297.43" y1="316.00" x2="297.43" y2="292.00" stroke="#000" stroke-width="1.5"/>
<line x1="297.43" y1="292.00" x2="369.18" y2="292.00" stroke="#000" stroke-width="1.5"/>
<line x1="369.18" y1="292.00" x2="369.18" y2="316.00" stroke="#000" stroke-width="1.5"/>
<line x1="369.18" y1="316.00" x2="379.94" y2="316.00" stroke="#000" stroke-width="1.5"/>
<line x1="379.94" y1="316.00" x2="379.94" y2="292.00" stroke="#000" stroke-width="1.5"/>
<line x1="379.94" y1="292.00" x2="451.69" y2="292.00" stroke="#000" stroke-width="1.5"/>
<line x1="451.69" y1="292.00" x2="451.69" y2="316.00" stroke="#000" stroke-width="1.5"/>
<line x1="451.69" y1="316.00" x2="462.45" y2="316.00" stroke="#000" stroke-width="1.5"/>
<line x1="462.45" y1="316.00" x2="462.45" y2="292.00" stroke="#000" stroke-width="1.5"/>
<line x1="462.45" y1="292.00" x2="534.20" y2="292.00" stroke="#000" stroke-width="1.5"/>
<line x1="534.20" y1="292.00" x2="534.20" y2="316.00" stroke="#000" stroke-width="1.5"/>
<line x1="534.20" y1="316.00" x2="620.30" y2="316.00" stroke="#000" stroke-width="1.5"/>
<line x1="620.30" y1="316.00" x2="620.30" y2="292.00" stroke="#000" stroke-width="1.5"/>
<line x1="620.30" y1="292.00" x2="692.05" y2="292.00" stroke="#000" stroke-width="1.5"/>
<line x1="692.05" y1="292.00" x2="692.05" y2="316.00" stroke="#000" stroke-width="1.5"/>
<line x1="692.05" y1="316.00" x2="702.81" y2="316.00" stroke="#000" stroke-width="1.5"/>
<line x1="702.81" y1="316.00" x2="702.81" y2="292.00" stroke="#000" stroke-width="1.5"/>
<line x1="702.81" y1="292.00" x2="774.56" y2="292.00" stroke="#000" stroke-width="1.5"/>
<line x1="774.56" y1="292.00" x2="774.56" y2="316.00" stroke="#000" stroke-width="1.5"/>
<line x1="774.56" y1="316.00" x2="785.32" y2="316.00" stroke="#000" stroke-width="1.5"/>
<line x1="785.32" y1="316.00" x2="785.32" y2="292.00" stroke="#000" stroke-width="1.5"/>
<line x1="785.32" y1="292.00" x2="857.07" y2="292.00" stroke="#000" stroke-width="1.5"/>
<line x1="857.07" y1="292.00" x2="857.07" y2="316.00" stroke="#000" stroke-width="1.5"/>
<line x1="857.07" y1="316.00" x2="867.83" y2="316.00" stroke="#000" stroke-width="1.5"/>
<line x1="867.83" y1="316.00" x2="867.83" y2="292.00" stroke="#000" stroke-width="1.5"/>
<line x1="867.83" y1="292.00" x2="939.58" y2="292.00" stroke="#000" stroke-width="1.5"/>
<line x1="939.58" y1="292.00" x2="939.58" y2="316.00" stroke="#000" stroke-width="1.5"/>
<line x1="939.58" y1="316.00" x2="950.35" y2="316.00" stroke="#000" stroke-width="1.5"/>
<line x1="950.35" y1="316.00" x2="950.35" y2="292.00" stroke="#000" stroke-width="1.5"/>
<line x1="950.35" y1="292.00" x2="1022.09" y2="292.00" stroke="#000" stroke-width="1.5"/>
<line x1="1022.09" y1="292.00" x2="1022.09" y2="316.00" stroke="#000" stroke-width="1.5"/>
<line x1="1022.09" y1="316.00" x2="1049.00" y2="316.00" stroke="#000" stroke-width="1.5"/>
</svg>
