<svg xmlns="http://www.w3.org/2000/svg" width="915.00" height="176.00" viewBox="0 0 915.00 176.00">
<rect width="100%" height="100%" fill="#fff"/>
<line x1="95.00" y1="16.00" x2="95.00" y2="148.00" stroke="#ccc"/>
<text x="95.00" y="160.00" font-family="monospace" font-size="10" text-anchor="middle" fill="#666">0</text>
<line x1="162.47" y1="16.00" x2="162.47" y2="148.00" stroke="#ccc"/>
<text x="162.47" y="160.00" font-family="monospace" font-size="10" text-anchor="middle" fill="#666">50000000</text>
<line x1="229.94" y1="16.00" x2="229.94" y2="148.00" stroke="#ccc"/>
<text x="229.94" y="160.00" font-family="monospace" font-size="10" text-anchor="middle" fill="#666">100000000</text>
<line x1="297.41" y1="16.00" x2="297.41" y2="148.00" stroke="#ccc"/>
<text x="297.41" y="160.00" font-family="monospace" font-size="10" text-anchor="middle" fill="#666">150000000</text>
<line x1="364.87" y1="16.00" x2="364.87" y2="148.00" stroke="#ccc"/>
<text x="364.87" y="160.00" font-family="monospace" font-size="10" text-anchor="middle" fill="#666">200000000</text>
<line x1="432.34" y1="16.00" x2="432.34" y2="148.00" stroke="#ccc"/>
<text x="432.34" y="160.00" font-family="monospace" font-size="10" text-anchor="middle" fill="#666">250000000</text>
<line x1="499.81" y1="16.00" x2="499.81" y2="148.00" stroke="#ccc"/>
<text x="499.81" y="160.00" font-family="monospace" font-size="10" text-anchor="middle" fill="#666">300000000</text>
<line x1="567.28" y1="16.00" x2="567.28" y2="148.00" stroke="#ccc"/>
<text x="567.28" y="160.00" font-family="monospace" font-size="10" text-anchor="middle" fill="#666">350000000</text>
<line x1="634.75" y1="16.00" x2="634.75" y2="148.00" stroke="#ccc"/>
<text x="634.75" y="160.00" font-family="monospace" font-size="10" text-anchor="middle" fill="#666">400000000</text>
<line x1="702.22" y1="16.00" x2="702.22" y2="148.00" stroke="#ccc"/>
<text x="702.22" y="160.00" font-family="monospace" font-size="10" text-anchor="middle" fill="#666">450000000</text>
<line x1="769.68" y1="16.00" x2="769.68" y2="148.00" stroke="#ccc"/>
<text x="769.68" y="160.00" font-family="monospace" font-size="10" text-anchor="middle" fill="#666">500000000</text>
<line x1="837.15" y1="16.00" x2="837.15" y2="148.00" stroke="#ccc"/>
<text x="837.15" y="160.00" font-family="monospace" font-size="10" text-anchor="middle" fill="#666">550000000</text>
<text x="83.00" y="44.00" font-family="monospace" font-size="12" text-anchor="end" fill="#000">rx_i</text>
<line x1="95.00" y1="52.00" x2="106.66" y2="52.00" stroke="#000" stroke-width="1.5"/>
<line x1="106.66" y1="52.00" x2="106.66" y2="28.00" stroke="#000" stroke-width="1.5"/>
<line x1="106.66" y1="28.00" x2="118.32" y2="28.00" stroke="#000" stroke-width="1.5"/>
<line x1="118.32" y1="28.00" x2="118.32" y2="52.00" stroke="#000" stroke-width="1.5"/>
<line x1="118.32" y1="52.00" x2="176.61" y2="52.00" stroke="#000" stroke-width="1.5"/>
<line x1="176.61" y1="52.00" x2="176.61" y2="28.00" stroke="#000" stroke-width="1.5"/>
<line x1="176.61" y1="28.00" x2="188.27" y2="28.00" stroke="#000" stroke-width="1.5"/>
<line x1="188.27" y1="28.00" x2="188.27" y2="52.00" stroke="#000" stroke-width="1.5"/>
<line x1="188.27" y1="52.00" x2="199.93" y2="52.00" stroke="#000" stroke-width="1.5"/>
<line x1="199.93" y1="52.00" x2="199.93" y2="28.00" stroke="#000" stroke-width="1.5"/>
<line x1="199.93" y1="28.00" x2="892.53" y2="28.00" stroke="#000" stroke-width="1.5"/>
<line x1="892.53" y1="28.00" x2="892.53" y2="52.00" stroke="#000" stroke-width="1.5"/>
<line x1="892.53" y1="52.00" x2="895.00" y2="52.00" stroke="#000" stroke-width="1.5"/>
<text x="83.00" y="88.00" font-family="monospace" font-size="12" text-anchor="end" fill="#000">tx_o</text>
<line x1="95.00" y1="72.00" x2="219.04" y2="72.00" stroke="#000" stroke-width="1.5"/>
<line x1="219.04" y1="72.00" x2="219.04" y2="96.00" stroke="#000" stroke-width="1.5"/>
<line x1="219.04" y1="96.00" x2="254.18" y2="96.00" stroke="#000" stroke-width="1.5"/>
<line x1="254.18" y1="96.00" x2="254.18" y2="72.00" stroke="#000" stroke-width="1.5"/>
<line x1="254.18" y1="72.00" x2="277.61" y2="72.00" stroke="#000" stroke-width="1.5"/>
<line x1="277.61" y1="72.00" x2="277.61" y2="96.00" stroke="#000" stroke-width="1.5"/>
<line x1="277.61" y1="96.00" x2="301.03" y2="96.00" stroke="#000" stroke-width="1.5"/>
<line x1="301.03" y1="96.00" x2="301.03" y2="72.00" stroke="#000" stroke-width="1.5"/>
<line x1="301.03" y1="72.00" x2="312.74" y2="72.00" stroke="#000" stroke-width="1.5"/>
<line x1="312.74" y1="72.00" x2="312.74" y2="96.00" stroke="#000" stroke-width="1.5"/>
<line x1="312.74" y1="96.00" x2="324.46" y2="96.00" stroke="#000" stroke-width="1.5"/>
<line x1="324.46" y1="96.00" x2="324.46" y2="72.00" stroke="#000" stroke-width="1.5"/>
<line x1="324.46" y1="72.00" x2="359.59" y2="72.00" stroke="#000" stroke-width="1.5"/>
<line x1="359.59" y1="72.00" x2="359.59" y2="96.00" stroke="#000" stroke-width="1.5"/>
<line x1="359.59" y1="96.00" x2="465.01" y2="96.00" stroke="#000" stroke-width="1.5"/>
<line x1="465.01" y1="96.00" x2="465.01" y2="72.00" stroke="#000" stroke-width="1.5"/>
<line x1="465.01" y1="72.00" x2="500.14" y2="72.00" stroke="#000" stroke-width="1.5"/>
<line x1="500.14" y1="72.00" x2="500.14" y2="96.00" stroke="#000" stroke-width="1.5"/>
<line x1="500.14" y1="96.00" x2="511.86" y2="96.00" stroke="#000" stroke-width="1.5"/>
<line x1="511.86" y1="96.00" x2="511.86" y2="72.00" stroke="#000" stroke-width="1.5"/>
<line x1="511.86" y1="72.00" x2="523.57" y2="72.00" stroke="#000" stroke-width="1.5"/>
<line x1="523.57" y1="72.00" x2="523.57" y2="96.00" stroke="#000" stroke-width="1.5"/>
<line x1="523.57" y1="96.00" x2="605.56" y2="96.00" stroke="#000" stroke-width="1.5"/>
<line x1="605.56" y1="96.00" x2="605.56" y2="72.00" stroke="#000" stroke-width="1.5"/>
<line x1="605.56" y1="72.00" x2="640.69" y2="72.00" stroke="#000" stroke-width="1.5"/>
<line x1="640.69" y1="72.00" x2="640.69" y2="96.00" stroke="#000" stroke-width="1.5"/>
<line x1="640.69" y1="96.00" x2="710.97" y2="96.00" stroke="#000" stroke-width="1.5"/>
<line x1="710.97" y1="96.00" x2="710.97" y2="72.00" stroke="#000" stroke-width="1.5"/>
<line x1="710.97" y1="72.00" x2="781.25" y2="72.00" stroke="#000" stroke-width="1.5"/>
<line x1="781.25" y1="72.00" x2="781.25" y2="96.00" stroke="#000" stroke-width="1.5"/>
<line x1="781.25" y1="96.00" x2="792.96" y2="96.00" stroke="#000" stroke-width="1.5"/>
<line x1="792.96" y1="96.00" x2="792.96" y2="72.00" stroke="#000" stroke-width="1.5"/>
<line x1="792.96" y1="72.00" x2="839.81" y2="72.00" stroke="#000" stroke-width="1.5"/>
<line x1="839.81" y1="72.00" x2="839.81" y2="96.00" stroke="#000" stroke-width="1.5"/>
<line x1="839.81" y1="96.00" x2="886.66" y2="96.00" stroke="#000" stroke-width="1.5"/>
<line x1="886.66" y1="96.00" x2="886.66" y2="72.00" stroke="#000" stroke-width="1.5"/>
<line x1="886.66" y1="72.00" x2="895.00" y2="72.00" stroke="#000" stroke-width="1.5"/>
<text x="83.00" y="132.00" font-family="monospace" font-size="12" text-anchor="end" fill="#000">state_led</text>
<polygon points="95.00,128.00 103.00,116.00 887.00,116.00 895.00,128.00 887.00,140.00 103.00,140.00" fill="#eef2ff" stroke="#333"/>
<text x="495.00" y="128.00" font-family="monospace" font-size="11" text-anchor="middle" dominant-baseline="middle" fill="#000">01</text>
</svg>
